<svg fill="none" height="23" viewBox="0 0 138 23" width="138" xmlns="http://www.w3.org/2000/svg"><path clip-rule="evenodd" d="m132.694 3.39695v18.90005h-2.7v-18.90005h-4.8v-2.1h12.3v2.1zm-10.395 11.11495c-.47.59-1.06 1.01-1.77 1.26s-1.555.375-2.535.375c-.46 0-.98-.03-1.56-.09s-1.06-.13-1.44-.21v6.45h-2.7v-20.69995c.76-.22 1.525-.375 2.295-.465s1.605-.135002 2.505-.135002c1.2 0 2.22.125002 3.06.375002s1.52.665 2.04 1.245.9 1.35 1.14 2.31.36 2.15.36 3.57c0 1.46-.115 2.67995-.345 3.65995s-.58 1.765-1.05 2.355zm-1.53-8.71496c-.15-.72-.385-1.29-.705-1.71s-.725-.715-1.215-.885-1.075-.255-1.755-.255h-2.1v11.09996h2.1c.68 0 1.265-.085 1.755-.255s.895-.465 1.215-.885.555-.99.705-1.71.225-1.61996.225-2.69996-.075-1.98-.225-2.7zm-15.225 11.10006h-6l-1.35 5.4h-2.7l5.1-21.00005h3.9l5.1 21.00005h-2.7zm-2.94-12.60006h-.12l-2.49 10.49996h5.1zm-12.96 2.40001h-.15l-4.35 12.90005h-2.7l-4.35-12.90005h-.15l-.9 15.60005h-2.7l1.2-21.00005h3.3l4.89 14.40005h.12l4.89-14.40005h3.3l1.2 21.00005h-2.7zm-20.16 13.64995c-.56.82-1.235 1.4-2.025 1.74s-1.695.51-2.715.51-1.925-.17-2.715-.51-1.465-.92-2.025-1.74-.985-1.925-1.275-3.315-.435-3.135-.435-5.235c0-2.09995.145-3.84495.435-5.23495s.715-2.495 1.275-3.315 1.235-1.4 2.025-1.74 1.695-.510002 2.715-.510002 1.925.170002 2.715.510002 1.465.92 2.025 1.74.985 1.925 1.275 3.315.435 3.135.435 5.23495c0 2.1-.145 3.845-.435 5.235s-.715 2.495-1.275 3.315zm-1.305-12.98995c-.21-1.16-.485-2.08-.825-2.76s-.74-1.15-1.2-1.41-.93-.39-1.41-.39-.95.13-1.41.39-.86.73-1.2 1.41-.615 1.6-.825 2.76-.315 2.64-.315 4.43995c0 1.8.105 3.28.315 4.44s.485 2.08.825 2.76.74 1.15 1.2 1.41.93.39 1.41.39.95-.13 1.41-.39.86-.73 1.2-1.41.615-1.6.825-2.76.315-2.64.315-4.44c0-1.79995-.105-3.27995-.315-4.43995zm-16.185 5.34005h-6.3v9.6h-2.7v-21.00005h2.7v9.30005h6.3v-9.30005h2.7v21.00005h-2.7zm-14.249 9.6-3.75-9-3.75 9h-2.7l4.5-10.8-4.05-10.20005h2.7l3.3 8.4 3.3-8.4h2.7l-4.05 10.20005 4.5 10.8zm-22.05-21.00005h10.2v2.1h-7.5v6.90005h6.6v2.1h-6.6v7.8h7.5v2.1h-10.2zm-7.2 21.00005h-2.7v-18.90005h-4.800001v-2.1h12.300001v2.1h-4.8z" fill="#fff" fill-rule="evenodd"/></svg>